<?xml version="1.0" encoding="utf-8"?>
<!-- Generator: Adobe Illustrator 13.0.2, SVG Export Plug-In . SVG Version: 6.00 Build 14948)  -->
<svg version="1.2" baseProfile="tiny" id="Layer_1" xmlns="http://www.w3.org/2000/svg" xmlns:xlink="http://www.w3.org/1999/xlink"
	 x="0px" y="0px" width="128px" height="127.996px" viewBox="0 0 128 127.996" xml:space="preserve">
<g>
	<rect fill="#999999" width="128" height="127.996"/>
	<g>
		<g>
			<path fill="#FFFFFF" d="M14.132,106.535v0.003V106.535L14.132,106.535z M110.026,105.089c-0.949-0.854-1.577-1.883-2.102-2.904
				l0,0c-1.018-2.042-1.738-4.209-2.544-5.274l0,0c-0.572-0.719-0.794-0.83-1.31-0.856l0,0c-0.413,0.013-0.637,0.104-1.052,0.464
				l0,0c-0.399,0.36-0.86,1.022-1.312,1.862l0,0c-0.936,1.683-1.752,3.963-3.24,5.819l0,0c-0.965,1.229-2.542,2.354-4.52,2.336l0,0
				h-0.081c-1.491,0.017-2.846-0.591-3.781-1.446l0,0c-0.951-0.854-1.576-1.883-2.104-2.904l0,0
				c-1.018-2.042-1.738-4.209-2.544-5.274l0,0c-0.57-0.719-0.792-0.83-1.309-0.856l0,0c-0.414,0.013-0.637,0.104-1.053,0.464l0,0
				c-0.398,0.36-0.86,1.022-1.312,1.862l0,0c-0.936,1.683-1.752,3.963-3.237,5.819l0,0c-0.968,1.229-2.542,2.354-4.522,2.336l0,0
				h-0.057c-1.494,0.017-2.848-0.591-3.782-1.446l0,0c-0.952-0.854-1.577-1.883-2.104-2.904l0,0
				c-1.019-2.042-1.738-4.209-2.544-5.274l0,0c-0.569-0.719-0.793-0.83-1.307-0.856l0,0c-0.415,0.013-0.639,0.104-1.052,0.464l0,0
				c-0.398,0.36-0.864,1.022-1.314,1.862l0,0c-0.936,1.683-1.752,3.963-3.237,5.819l0,0c-0.968,1.229-2.543,2.354-4.523,2.336l0,0
				h-0.171c-1.494,0.017-2.848-0.591-3.783-1.446l0,0c-0.951-0.854-1.577-1.883-2.104-2.904l0,0
				c-1.016-2.042-1.739-4.209-2.545-5.274l0,0c-0.569-0.719-0.792-0.83-1.306-0.856l0,0c-0.416,0.013-0.639,0.104-1.054,0.464l0,0
				c-0.397,0.36-0.858,1.022-1.312,1.862l0,0c-0.935,1.683-1.752,3.963-3.239,5.819l0,0c-0.967,1.229-2.542,2.354-4.518,2.336l0,0
				h-0.06c-1.494,0.017-2.846-0.591-3.784-1.446l0,0c-0.95-0.854-1.577-1.883-2.102-2.904l0,0c-1.018-2.042-1.738-4.209-2.544-5.274
				l0,0c-0.572-0.719-0.794-0.83-1.308-0.856l0,0c-0.415,0.013-0.637,0.104-1.054,0.464l0,0c-0.397,0.36-0.86,1.022-1.312,1.862l0,0
				c-0.936,1.683-1.752,3.963-3.24,5.819l0,0c-0.965,1.229-2.542,2.354-4.52,2.336l0,0v-3.791c0.468-0.014,0.726-0.121,1.155-0.484
				l0,0c0.412-0.362,0.882-1.021,1.339-1.851l0,0c0.946-1.674,1.752-3.939,3.192-5.79l0,0c0.933-1.223,2.473-2.373,4.439-2.356l0,0
				c1.444-0.019,2.748,0.647,3.598,1.513l0,0c0.87,0.862,1.426,1.869,1.917,2.877l0,0c0.944,2.008,1.685,4.125,2.553,5.167l0,0
				c0.6,0.698,0.928,0.897,1.669,0.927l0,0l0.06-0.002c0.466-0.014,0.725-0.121,1.155-0.484l0,0
				c0.411-0.362,0.881-1.021,1.337-1.851l0,0c0.944-1.674,1.752-3.939,3.193-5.79l0,0c0.932-1.223,2.472-2.373,4.438-2.356l0,0
				c1.446-0.019,2.749,0.647,3.598,1.513l0,0c0.867,0.862,1.426,1.869,1.916,2.877l0,0c0.945,2.008,1.687,4.125,2.553,5.167l0,0
				c0.601,0.698,0.929,0.897,1.671,0.927l0,0l0.171-0.002c0.472-0.014,0.729-0.121,1.159-0.484l0,0
				c0.41-0.362,0.881-1.021,1.338-1.851l0,0c0.943-1.674,1.751-3.939,3.192-5.79l0,0c0.932-1.223,2.471-2.373,4.438-2.356l0,0
				c1.446-0.019,2.749,0.647,3.598,1.513l0,0c0.869,0.862,1.427,1.869,1.917,2.877l0,0c0.944,2.008,1.687,4.125,2.553,5.167l0,0
				c0.601,0.698,0.929,0.897,1.67,0.927l0,0l0.057-0.002c0.468-0.014,0.729-0.121,1.157-0.484l0,0
				c0.412-0.362,0.883-1.021,1.339-1.851l0,0c0.942-1.674,1.75-3.939,3.192-5.79l0,0c0.933-1.223,2.473-2.373,4.436-2.356l0,0
				c1.448-0.019,2.751,0.647,3.602,1.513l0,0c0.867,0.862,1.426,1.869,1.914,2.877l0,0c0.944,2.008,1.686,4.125,2.553,5.167l0,0
				c0.603,0.698,0.931,0.897,1.669,0.927l0,0l0.081-0.002c0.468-0.014,0.726-0.121,1.154-0.484l0,0
				c0.415-0.362,0.882-1.021,1.339-1.851l0,0c0.945-1.674,1.752-3.939,3.192-5.79l0,0c0.932-1.223,2.474-2.373,4.438-2.356l0,0
				c1.446-0.019,2.752,0.647,3.601,1.513l0,0c0.868,0.862,1.425,1.869,1.916,2.877l0,0c0.942,2.008,1.686,4.125,2.553,5.167l0,0
				c0.6,0.698,0.927,0.897,1.668,0.927l0,0h0.06v3.789h-0.06c-0.019,0-0.038,0-0.058,0l0,0
				C112.28,106.535,110.951,105.934,110.026,105.089L110.026,105.089z"/>
		</g>
		<g>
			<path fill="#F2F2F2" d="M93.948,88.835h-0.081c-1.491,0.013-2.846-0.592-3.781-1.448l0,0c-0.951-0.853-1.576-1.882-2.104-2.904
				l0,0c-1.018-2.043-1.738-4.211-2.544-5.276l0,0c-0.57-0.717-0.792-0.829-1.309-0.855l0,0c-0.414,0.016-0.637,0.104-1.053,0.467
				l0,0c-0.398,0.357-0.86,1.021-1.312,1.859l0,0c-0.936,1.682-1.752,3.964-3.237,5.822l0,0c-0.968,1.229-2.542,2.354-4.522,2.336
				l0,0h-0.057c-1.494,0.013-2.848-0.592-3.782-1.448l0,0c-0.952-0.853-1.577-1.882-2.104-2.904l0,0
				c-1.019-2.043-1.738-4.211-2.544-5.276l0,0c-0.569-0.717-0.793-0.829-1.307-0.855l0,0c-0.415,0.016-0.639,0.104-1.052,0.467l0,0
				c-0.398,0.357-0.864,1.021-1.314,1.859l0,0c-0.936,1.682-1.752,3.964-3.237,5.822l0,0c-0.968,1.229-2.543,2.354-4.523,2.336l0,0
				h-0.171c-1.494,0.013-2.848-0.592-3.783-1.448l0,0c-0.951-0.853-1.577-1.882-2.104-2.904l0,0
				c-1.016-2.043-1.739-4.211-2.545-5.276l0,0c-0.569-0.717-0.792-0.829-1.306-0.855l0,0c-0.416,0.016-0.639,0.104-1.054,0.467l0,0
				c-0.397,0.357-0.858,1.021-1.312,1.859l0,0c-0.935,1.682-1.752,3.964-3.239,5.822l0,0c-0.967,1.229-2.542,2.354-4.518,2.336l0,0
				h-0.06c-1.494,0.013-2.846-0.592-3.784-1.448l0,0c-0.95-0.853-1.577-1.882-2.102-2.904l0,0c-1.018-2.043-1.738-4.211-2.544-5.276
				l0,0c-0.572-0.717-0.794-0.829-1.308-0.855l0,0c-0.415,0.016-0.637,0.104-1.054,0.467l0,0c-0.397,0.357-0.86,1.021-1.312,1.859
				l0,0c-0.936,1.682-1.752,3.964-3.24,5.822l0,0c-0.965,1.229-2.542,2.354-4.52,2.336l0,0v-3.793
				c0.468-0.012,0.726-0.123,1.155-0.485l0,0c0.412-0.36,0.882-1.019,1.339-1.852l0,0c0.946-1.674,1.752-3.938,3.192-5.79l0,0
				c0.933-1.223,2.473-2.372,4.439-2.356l0,0c1.444-0.016,2.748,0.65,3.598,1.513l0,0c0.87,0.864,1.426,1.873,1.917,2.879l0,0
				c0.944,2.006,1.685,4.123,2.553,5.169l0,0c0.6,0.698,0.928,0.894,1.669,0.923l0,0h0.06c0.466-0.012,0.725-0.123,1.155-0.485l0,0
				c0.411-0.36,0.881-1.019,1.337-1.852l0,0c0.944-1.674,1.752-3.938,3.193-5.79l0,0c0.932-1.223,2.472-2.372,4.438-2.356l0,0
				c1.446-0.016,2.749,0.65,3.598,1.513l0,0c0.867,0.864,1.426,1.873,1.916,2.879l0,0c0.945,2.006,1.687,4.123,2.553,5.169l0,0
				c0.601,0.698,0.929,0.894,1.671,0.923l0,0h0.171c0.472-0.012,0.729-0.123,1.159-0.485l0,0c0.41-0.36,0.881-1.019,1.338-1.852l0,0
				c0.943-1.674,1.751-3.938,3.192-5.79l0,0c0.932-1.223,2.471-2.372,4.438-2.356l0,0c1.446-0.016,2.749,0.65,3.598,1.513l0,0
				c0.869,0.864,1.427,1.873,1.917,2.879l0,0c0.944,2.006,1.687,4.123,2.553,5.169l0,0c0.601,0.698,0.929,0.894,1.67,0.923l0,0
				h0.057c0.468-0.012,0.729-0.123,1.157-0.485l0,0c0.412-0.36,0.883-1.019,1.339-1.852l0,0c0.942-1.674,1.75-3.938,3.192-5.79l0,0
				c0.933-1.223,2.473-2.372,4.436-2.356l0,0c1.448-0.016,2.751,0.65,3.602,1.513l0,0c0.867,0.864,1.426,1.873,1.914,2.879l0,0
				c0.944,2.006,1.686,4.123,2.553,5.169l0,0c0.603,0.698,0.931,0.894,1.669,0.923l0,0h0.081c0.468-0.012,0.726-0.123,1.154-0.485
				l0,0c0.415-0.36,0.882-1.019,1.339-1.852l0,0c0.945-1.674,1.752-3.938,3.192-5.79l0,0c0.932-1.223,2.474-2.372,4.438-2.356l0,0
				c1.446-0.016,2.752,0.65,3.601,1.513l0,0c0.868,0.864,1.425,1.873,1.916,2.879l0,0c0.942,2.006,1.686,4.123,2.553,5.169l0,0
				c0.6,0.698,0.927,0.894,1.668,0.923l0,0h0.06v3.793h-0.06c-1.494,0.013-2.845-0.592-3.782-1.448l0,0
				c-0.949-0.853-1.577-1.882-2.102-2.904l0,0c-1.018-2.043-1.738-4.211-2.544-5.276l0,0c-0.572-0.717-0.794-0.829-1.31-0.855l0,0
				c-0.413,0.016-0.637,0.104-1.052,0.467l0,0c-0.399,0.357-0.86,1.021-1.312,1.859l0,0c-0.936,1.682-1.752,3.964-3.24,5.822l0,0
				c-0.958,1.218-2.516,2.336-4.472,2.336l0,0C93.98,88.835,93.964,88.835,93.948,88.835L93.948,88.835z"/>
		</g>
		<g>
			<path fill="#E6E6E6" d="M93.948,71.137l-0.081-0.004c-1.491,0.018-2.846-0.59-3.781-1.445l0,0
				c-0.951-0.853-1.576-1.881-2.104-2.904l0,0c-1.018-2.042-1.738-4.21-2.544-5.274l0,0c-0.57-0.72-0.792-0.831-1.309-0.857l0,0
				c-0.414,0.014-0.637,0.105-1.053,0.464l0,0c-0.398,0.36-0.86,1.024-1.312,1.863l0,0c-0.936,1.682-1.752,3.963-3.237,5.819l0,0
				c-0.968,1.231-2.542,2.354-4.522,2.335l0,0h-0.057c-1.494,0.018-2.848-0.59-3.782-1.445l0,0
				c-0.952-0.853-1.577-1.881-2.104-2.904l0,0c-1.019-2.042-1.738-4.21-2.544-5.274l0,0c-0.569-0.72-0.793-0.831-1.307-0.857l0,0
				c-0.415,0.014-0.639,0.105-1.052,0.464l0,0c-0.398,0.36-0.864,1.024-1.314,1.863l0,0c-0.936,1.682-1.752,3.963-3.237,5.819l0,0
				c-0.968,1.231-2.543,2.354-4.523,2.335l0,0h-0.171c-1.494,0.018-2.848-0.59-3.783-1.445l0,0
				c-0.951-0.853-1.577-1.881-2.104-2.904l0,0c-1.016-2.042-1.739-4.21-2.545-5.274l0,0c-0.569-0.72-0.792-0.831-1.306-0.857l0,0
				c-0.416,0.014-0.639,0.105-1.054,0.464l0,0c-0.397,0.36-0.858,1.024-1.312,1.863l0,0c-0.935,1.682-1.752,3.963-3.239,5.819l0,0
				c-0.967,1.231-2.542,2.354-4.518,2.335l0,0h-0.06c-1.494,0.018-2.846-0.59-3.784-1.445l0,0c-0.95-0.853-1.577-1.881-2.102-2.904
				l0,0c-1.018-2.042-1.738-4.21-2.544-5.274l0,0c-0.572-0.72-0.794-0.831-1.308-0.857l0,0c-0.415,0.014-0.637,0.105-1.054,0.464
				l0,0c-0.397,0.36-0.86,1.024-1.312,1.863l0,0c-0.936,1.682-1.752,3.963-3.24,5.819l0,0c-0.965,1.231-2.542,2.354-4.52,2.339l0,0
				v-3.792c0.468-0.014,0.726-0.124,1.155-0.486l0,0c0.412-0.362,0.882-1.019,1.339-1.851l0,0c0.946-1.674,1.752-3.939,3.192-5.791
				l0,0c0.933-1.223,2.473-2.373,4.439-2.356l0,0c1.444-0.019,2.748,0.648,3.598,1.513l0,0c0.87,0.863,1.426,1.873,1.917,2.878l0,0
				c0.944,2.007,1.685,4.124,2.553,5.169l0,0c0.6,0.699,0.928,0.895,1.669,0.925l0,0h0.06c0.466-0.014,0.725-0.124,1.155-0.486l0,0
				c0.411-0.362,0.881-1.019,1.337-1.851l0,0c0.944-1.674,1.752-3.939,3.193-5.791l0,0c0.932-1.223,2.472-2.373,4.438-2.356l0,0
				c1.446-0.019,2.749,0.648,3.598,1.513l0,0c0.867,0.863,1.426,1.873,1.916,2.878l0,0c0.945,2.007,1.687,4.124,2.553,5.169l0,0
				c0.601,0.699,0.929,0.895,1.671,0.925l0,0h0.171c0.472-0.014,0.729-0.124,1.159-0.486l0,0c0.41-0.362,0.881-1.019,1.338-1.851
				l0,0c0.943-1.674,1.751-3.939,3.192-5.791l0,0c0.932-1.223,2.471-2.373,4.438-2.356l0,0c1.446-0.019,2.749,0.648,3.598,1.513l0,0
				c0.869,0.863,1.427,1.873,1.917,2.878l0,0c0.944,2.007,1.687,4.124,2.553,5.169l0,0c0.601,0.699,0.929,0.895,1.67,0.925l0,0
				h0.057c0.468-0.014,0.729-0.124,1.157-0.486l0,0c0.412-0.362,0.883-1.019,1.339-1.851l0,0c0.942-1.674,1.75-3.939,3.192-5.791
				l0,0c0.933-1.223,2.473-2.373,4.436-2.356l0,0c1.448-0.019,2.751,0.648,3.602,1.513l0,0c0.867,0.863,1.426,1.873,1.914,2.878l0,0
				c0.944,2.007,1.686,4.124,2.553,5.169l0,0c0.603,0.699,0.931,0.895,1.669,0.925l0,0h0.081c0.468-0.014,0.726-0.124,1.154-0.486
				l0,0c0.415-0.362,0.882-1.019,1.339-1.851l0,0c0.945-1.674,1.752-3.939,3.192-5.791l0,0c0.932-1.223,2.474-2.373,4.438-2.356l0,0
				c1.446-0.019,2.752,0.648,3.601,1.513l0,0c0.868,0.863,1.425,1.873,1.916,2.878l0,0c0.942,2.007,1.686,4.124,2.553,5.169l0,0
				c0.6,0.699,0.927,0.895,1.668,0.925l0,0h0.06v3.788h-0.06c-1.494,0.018-2.845-0.59-3.782-1.445l0,0
				c-0.949-0.853-1.577-1.881-2.102-2.904l0,0c-1.018-2.042-1.738-4.21-2.544-5.274l0,0c-0.572-0.72-0.794-0.831-1.31-0.857l0,0
				c-0.413,0.014-0.637,0.105-1.052,0.464l0,0c-0.399,0.36-0.86,1.024-1.312,1.863l0,0c-0.936,1.682-1.752,3.963-3.24,5.819l0,0
				c-0.959,1.222-2.52,2.339-4.478,2.339l0,0C93.977,71.137,93.962,71.137,93.948,71.137L93.948,71.137z"/>
		</g>
		<g>
			<path fill="#CCCCCC" d="M14.132,53.432v0.002V53.432L14.132,53.432z M110.026,51.987c-0.949-0.854-1.577-1.881-2.102-2.904l0,0
				c-1.018-2.042-1.738-4.21-2.544-5.274l0,0c-0.572-0.72-0.794-0.831-1.31-0.857l0,0c-0.413,0.013-0.637,0.104-1.052,0.464l0,0
				c-0.399,0.36-0.86,1.023-1.312,1.862l0,0c-0.936,1.682-1.752,3.963-3.24,5.82l0,0c-0.965,1.228-2.542,2.354-4.52,2.335l0,0
				h-0.081c-1.491,0.016-2.846-0.591-3.781-1.445l0,0c-0.951-0.854-1.576-1.881-2.104-2.904l0,0
				c-1.018-2.042-1.738-4.21-2.544-5.274l0,0c-0.57-0.72-0.792-0.831-1.309-0.857l0,0c-0.414,0.013-0.637,0.104-1.053,0.464l0,0
				c-0.398,0.36-0.86,1.023-1.312,1.862l0,0c-0.936,1.682-1.752,3.963-3.237,5.82l0,0c-0.968,1.228-2.542,2.354-4.522,2.335l0,0
				h-0.057c-1.494,0.016-2.848-0.591-3.782-1.445l0,0c-0.952-0.854-1.577-1.881-2.104-2.904l0,0
				c-1.019-2.042-1.738-4.21-2.544-5.274l0,0c-0.569-0.72-0.793-0.831-1.307-0.857l0,0c-0.415,0.013-0.639,0.104-1.052,0.464l0,0
				c-0.398,0.36-0.864,1.023-1.314,1.862l0,0c-0.936,1.682-1.752,3.963-3.237,5.82l0,0c-0.968,1.228-2.543,2.354-4.523,2.335l0,0
				h-0.171c-1.494,0.016-2.848-0.591-3.783-1.445l0,0c-0.951-0.854-1.577-1.881-2.104-2.904l0,0
				c-1.016-2.042-1.739-4.21-2.545-5.274l0,0c-0.569-0.72-0.792-0.831-1.306-0.857l0,0c-0.416,0.013-0.639,0.104-1.054,0.464l0,0
				c-0.397,0.36-0.858,1.023-1.312,1.862l0,0c-0.935,1.682-1.752,3.963-3.239,5.82l0,0c-0.967,1.228-2.542,2.354-4.518,2.335l0,0
				h-0.06c-1.494,0.016-2.846-0.591-3.784-1.445l0,0c-0.95-0.854-1.577-1.881-2.102-2.904l0,0c-1.018-2.042-1.738-4.21-2.544-5.274
				l0,0c-0.572-0.72-0.794-0.831-1.308-0.857l0,0c-0.415,0.013-0.637,0.104-1.054,0.464l0,0c-0.397,0.36-0.86,1.023-1.312,1.862l0,0
				c-0.936,1.682-1.752,3.963-3.24,5.82l0,0c-0.965,1.228-2.542,2.354-4.52,2.335l0,0v-3.792c0.468-0.013,0.726-0.121,1.155-0.483
				l0,0c0.412-0.363,0.882-1.018,1.339-1.851l0,0c0.946-1.674,1.752-3.939,3.192-5.791l0,0c0.933-1.223,2.473-2.373,4.439-2.356l0,0
				c1.444-0.019,2.748,0.647,3.598,1.513l0,0c0.87,0.862,1.426,1.873,1.917,2.878l0,0c0.944,2.006,1.685,4.124,2.553,5.169l0,0
				c0.6,0.696,0.928,0.895,1.669,0.924l0,0l0.06-0.003c0.466-0.013,0.725-0.121,1.155-0.483l0,0
				c0.411-0.363,0.881-1.018,1.337-1.851l0,0c0.944-1.674,1.752-3.939,3.193-5.791l0,0c0.932-1.223,2.472-2.373,4.438-2.356l0,0
				c1.446-0.019,2.749,0.647,3.598,1.513l0,0c0.867,0.862,1.426,1.873,1.916,2.878l0,0c0.945,2.006,1.687,4.124,2.553,5.169l0,0
				c0.601,0.696,0.929,0.895,1.671,0.924l0,0l0.171-0.003c0.472-0.013,0.729-0.121,1.159-0.483l0,0
				c0.41-0.363,0.881-1.018,1.338-1.851l0,0c0.943-1.674,1.751-3.939,3.192-5.791l0,0c0.932-1.223,2.471-2.373,4.438-2.356l0,0
				c1.446-0.019,2.749,0.647,3.598,1.513l0,0c0.869,0.862,1.427,1.873,1.917,2.878l0,0c0.944,2.006,1.687,4.124,2.553,5.169l0,0
				c0.601,0.696,0.929,0.895,1.67,0.924l0,0l0.057-0.003c0.468-0.013,0.729-0.121,1.157-0.483l0,0
				c0.412-0.363,0.883-1.018,1.339-1.851l0,0c0.942-1.674,1.75-3.939,3.192-5.791l0,0c0.933-1.223,2.473-2.373,4.436-2.356l0,0
				c1.448-0.019,2.751,0.647,3.602,1.513l0,0c0.867,0.862,1.426,1.873,1.914,2.878l0,0c0.944,2.006,1.686,4.124,2.553,5.169l0,0
				c0.603,0.696,0.931,0.895,1.669,0.924l0,0l0.081-0.003c0.468-0.013,0.726-0.121,1.154-0.483l0,0
				c0.415-0.363,0.882-1.018,1.339-1.851l0,0c0.945-1.674,1.752-3.939,3.192-5.791l0,0c0.932-1.223,2.474-2.373,4.438-2.356l0,0
				c1.446-0.019,2.752,0.647,3.601,1.513l0,0c0.868,0.862,1.425,1.873,1.916,2.878l0,0c0.942,2.006,1.686,4.124,2.553,5.169l0,0
				c0.6,0.696,0.927,0.895,1.668,0.924l0,0h0.06v3.788h-0.06c-0.019,0-0.038,0-0.058,0l0,0
				C112.28,53.432,110.951,52.83,110.026,51.987L110.026,51.987z"/>
		</g>
		<g>
			<path fill="#B3B3B3" d="M110.026,34.286c-0.949-0.854-1.577-1.88-2.102-2.905l0,0c-1.018-2.042-1.738-4.21-2.544-5.274l0,0
				c-0.572-0.72-0.794-0.83-1.31-0.857l0,0c-0.413,0.014-0.637,0.105-1.052,0.465l0,0c-0.399,0.359-0.86,1.021-1.312,1.862l0,0
				c-0.936,1.682-1.752,3.963-3.24,5.82l0,0c-0.965,1.228-2.542,2.354-4.52,2.335l0,0h-0.081c-1.491,0.016-2.846-0.592-3.781-1.446
				l0,0c-0.951-0.854-1.576-1.88-2.104-2.905l0,0c-1.018-2.042-1.738-4.21-2.544-5.274l0,0c-0.57-0.72-0.792-0.83-1.309-0.857l0,0
				c-0.414,0.014-0.637,0.105-1.053,0.465l0,0c-0.398,0.359-0.86,1.021-1.312,1.862l0,0c-0.936,1.682-1.752,3.963-3.237,5.82l0,0
				c-0.968,1.228-2.542,2.354-4.522,2.335l0,0h-0.057c-1.494,0.016-2.848-0.592-3.782-1.446l0,0
				c-0.952-0.854-1.577-1.88-2.104-2.905l0,0c-1.019-2.042-1.738-4.21-2.544-5.274l0,0c-0.569-0.72-0.793-0.83-1.307-0.857l0,0
				c-0.415,0.014-0.639,0.105-1.052,0.465l0,0c-0.398,0.359-0.864,1.021-1.314,1.862l0,0c-0.936,1.682-1.752,3.963-3.237,5.82l0,0
				c-0.968,1.228-2.543,2.354-4.523,2.335l0,0h-0.171c-1.494,0.016-2.848-0.592-3.783-1.446l0,0
				c-0.951-0.854-1.577-1.88-2.104-2.905l0,0c-1.016-2.042-1.739-4.21-2.545-5.274l0,0c-0.569-0.72-0.792-0.83-1.306-0.857l0,0
				c-0.416,0.014-0.639,0.105-1.054,0.465l0,0c-0.397,0.359-0.858,1.021-1.312,1.862l0,0c-0.935,1.682-1.752,3.963-3.239,5.82l0,0
				c-0.967,1.228-2.542,2.354-4.518,2.335l0,0h-0.06c-1.494,0.016-2.846-0.592-3.784-1.446l0,0c-0.95-0.854-1.577-1.88-2.102-2.905
				l0,0c-1.018-2.042-1.738-4.21-2.544-5.274l0,0c-0.572-0.72-0.794-0.83-1.308-0.857l0,0c-0.415,0.014-0.637,0.105-1.054,0.465l0,0
				c-0.397,0.359-0.86,1.021-1.312,1.862l0,0c-0.936,1.682-1.752,3.963-3.24,5.82l0,0c-0.965,1.228-2.542,2.354-4.52,2.335l0,0
				V31.94c0.468-0.014,0.726-0.121,1.155-0.483l0,0c0.412-0.363,0.882-1.019,1.339-1.854l0,0c0.946-1.671,1.752-3.937,3.192-5.788
				l0,0c0.933-1.222,2.473-2.372,4.439-2.356l0,0c1.444-0.02,2.748,0.647,3.598,1.512l0,0c0.87,0.863,1.426,1.873,1.917,2.877l0,0
				c0.944,2.007,1.685,4.125,2.553,5.167l0,0c0.6,0.699,0.928,0.898,1.669,0.927l0,0l0.06-0.002
				c0.466-0.014,0.725-0.121,1.155-0.483l0,0c0.411-0.363,0.881-1.019,1.337-1.854l0,0c0.944-1.671,1.752-3.937,3.193-5.788l0,0
				c0.932-1.222,2.472-2.372,4.438-2.356l0,0c1.446-0.02,2.749,0.647,3.598,1.512l0,0c0.867,0.863,1.426,1.873,1.916,2.877l0,0
				c0.945,2.007,1.687,4.125,2.553,5.167l0,0c0.601,0.699,0.929,0.898,1.671,0.927l0,0l0.171-0.002
				c0.472-0.014,0.729-0.121,1.159-0.483l0,0c0.41-0.363,0.881-1.019,1.338-1.854l0,0c0.943-1.671,1.751-3.937,3.192-5.788l0,0
				c0.932-1.222,2.471-2.372,4.438-2.356l0,0c1.446-0.02,2.749,0.647,3.598,1.512l0,0c0.869,0.863,1.427,1.873,1.917,2.877l0,0
				c0.944,2.007,1.687,4.125,2.553,5.167l0,0c0.601,0.699,0.929,0.898,1.67,0.927l0,0l0.057-0.002
				c0.468-0.014,0.729-0.121,1.157-0.483l0,0c0.412-0.363,0.883-1.019,1.339-1.854l0,0c0.942-1.671,1.75-3.937,3.192-5.788l0,0
				c0.933-1.222,2.473-2.372,4.436-2.356l0,0c1.448-0.02,2.751,0.647,3.602,1.512l0,0c0.867,0.863,1.426,1.873,1.914,2.877l0,0
				c0.944,2.007,1.686,4.125,2.553,5.167l0,0c0.603,0.699,0.931,0.898,1.669,0.927l0,0l0.081-0.002
				c0.468-0.014,0.726-0.121,1.154-0.483l0,0c0.415-0.363,0.882-1.019,1.339-1.854l0,0c0.945-1.671,1.752-3.937,3.192-5.788l0,0
				c0.932-1.222,2.474-2.372,4.438-2.356l0,0c1.446-0.02,2.752,0.647,3.601,1.512l0,0c0.868,0.863,1.425,1.873,1.916,2.877l0,0
				c0.942,2.007,1.686,4.125,2.553,5.167l0,0c0.6,0.699,0.927,0.898,1.668,0.927l0,0h0.06v3.789h-0.06c-0.019,0-0.038,0-0.058,0l0,0
				C112.28,35.731,110.951,35.129,110.026,34.286L110.026,34.286z"/>
		</g>
	</g>
</g>
</svg>
