<?xml version="1.0" encoding="utf-8"?>
<!-- Generator: Adobe Illustrator 13.0.2, SVG Export Plug-In . SVG Version: 6.00 Build 14948)  -->
<svg version="1.2" baseProfile="tiny" id="Layer_1" xmlns="http://www.w3.org/2000/svg" xmlns:xlink="http://www.w3.org/1999/xlink"
	 x="0px" y="0px" width="128px" height="127.996px" viewBox="0 0 128 127.996" xml:space="preserve">
<g>
	<rect fill="#999999" width="128" height="127.996"/>
	<g>
		<g>
			<path fill="#CCCCCC" d="M112.125,51.115c0-12.897-10.456-23.354-23.356-23.354c-2.125,0-4.182,0.289-6.14,0.822
				c-3.739-8.692-12.377-14.782-22.443-14.782c-13.444,0-24.346,10.865-24.415,24.292c-9.674,0.423-17.389,8.399-17.389,18.178
				c0,10.051,8.148,18.198,18.199,18.198c0.039,0,0.076-0.004,0.116-0.004v0.004h52.172v-0.002
				C101.723,74.414,112.125,63.981,112.125,51.115z"/>
			<path fill="#333333" d="M34.169,76.999v-0.14c-10.312-1.193-18.313-9.954-18.315-20.587l0,0
				c0.002-10.35,7.582-18.922,17.497-20.474l0,0c1.224-13.748,12.766-24.523,26.833-24.525l0,0
				c10.354,0.005,19.339,5.84,23.851,14.398l0,0c1.534-0.287,3.117-0.438,4.734-0.438l0,0c14.296,0.002,25.881,11.587,25.884,25.882
				l0,0h-0.003c0,13.409-10.191,24.43-23.255,25.748l0,0v0.137H34.169L34.169,76.999z M38.297,38.106l-0.013,2.406l-2.403,0.106
				c-8.326,0.363-14.977,7.234-14.974,15.653l0,0c0.016,8.633,6.983,15.621,15.605,15.673l0,0c0.03-0.001,0.093-0.005,0.183-0.005
				l0,0h2.525v0.003h49.636c11.463-0.049,20.742-9.355,20.74-20.829l0,0c-0.021-11.502-9.324-20.808-20.828-20.829l0,0
				c-1.896,0.003-3.726,0.26-5.477,0.734l0,0l-2.118,0.578l-0.866-2.017c-3.356-7.794-11.098-13.255-20.124-13.252l0,0
				c-0.002,0-0.002,0-0.004,0l0,0C48.131,16.33,38.357,26.073,38.297,38.106L38.297,38.106z"/>
		</g>
	</g>
	<circle fill="#FFFFFF" cx="39.307" cy="86.212" r="4.414"/>
	<circle fill="#FFFFFF" cx="17.729" cy="100.58" r="4.414"/>
	<circle fill="#FFFFFF" cx="87.171" cy="89.791" r="4.413"/>
	<circle fill="#FFFFFF" cx="61.314" cy="115.147" r="4.414"/>
	<g>
		<path fill="#FFFFFF" d="M45.152,126.734c0.037-13.689,2.718-25.346,7.017-30.788l0,0c1.441-1.802,3.221-3.022,5.283-3.027l0,0
			v2.527c-0.987-0.008-2.114,0.594-3.314,2.082l0,0c-1.182,1.47-2.331,3.736-3.295,6.586l0,0c-1.938,5.708-3.165,13.741-3.162,22.62
			l0,0H45.152L45.152,126.734z"/>
	</g>
	<g>
		<path fill="#FFFFFF" d="M45.3,126.376c0.002-6.58-2.193-12.512-5.688-16.759l0,0c-3.502-4.249-8.246-6.803-13.461-6.806l0,0
			v-2.526c12.183,0.047,21.654,11.848,21.675,26.091l0,0h0.002H45.3L45.3,126.376z"/>
	</g>
	<g>
		<path fill="#FFFFFF" d="M89.872,127.285c0.006-5.616,0.811-10.694,2.167-14.479l0,0c1.376-3.696,3.203-6.511,6.238-6.646l0,0
			v2.525c-0.909-0.136-2.652,1.49-3.861,4.979l0,0c-1.227,3.403-2.019,8.257-2.014,13.621l0,0H89.872L89.872,127.285z"/>
	</g>
	<g>
		<path fill="#FFFFFF" d="M90.393,127.009c0.005-6.881-1.69-13.092-4.351-17.489l0,0c-2.674-4.422-6.196-6.915-9.862-6.904l0,0
			c-3.669-0.011-7.191,2.482-9.864,6.904l0,0l-2.165-1.305c2.929-4.865,7.146-8.116,12.029-8.128l0,0
			c4.88,0.012,9.099,3.263,12.026,8.128l0,0c2.941,4.887,4.711,11.502,4.716,18.794l0,0H90.393L90.393,127.009z"/>
	</g>
</g>
</svg>
