<?xml version="1.0" encoding="utf-8"?>
<!-- Generator: Adobe Illustrator 13.0.2, SVG Export Plug-In . SVG Version: 6.00 Build 14948)  -->
<svg version="1.2" baseProfile="tiny" id="Layer_1" xmlns="http://www.w3.org/2000/svg" xmlns:xlink="http://www.w3.org/1999/xlink"
	 x="0px" y="0px" width="128px" height="127.996px" viewBox="0 0 128 127.996" xml:space="preserve">
<g>
	<rect fill="#999999" width="128" height="127.996"/>
	<g>
		<g>
			<path fill="#FFFFFF" d="M17.083,97.342c-2.9-3.218-4.385-7.626-4.383-12.47l0,0c0.007-8.469,4.473-18.37,14.161-26.68l0,0
				l0.002,0.003l2.465,2.877c-9.003,7.709-12.846,16.678-12.837,23.8l0,0c0.002,4.086,1.242,7.531,3.406,9.933l0,0
				c2.174,2.396,5.278,3.862,9.497,3.876l0,0c2.452,0,5.275-0.518,8.439-1.709l0,0c27.065-10.22,39.976-19.394,50.804-23.188l0,0
				c1.249-0.438,2.497-0.646,3.708-0.646l0,0c7.261,0.141,12.203,6.88,12.267,13.09l0,0c0.011,2.476-0.864,5.017-2.878,6.853l0,0
				c-2.01,1.841-4.979,2.861-8.807,2.856l0,0c-0.384,0-0.774-0.009-1.185-0.027l0,0c-2.201-0.181-3.922-1.565-5.393-3.326l0,0
				c-1.427-1.793-2.528-4.117-2.542-6.681l0,0c0-0.192,0.003-0.415,0.028-0.674l0,0l3.771,0.378
				c-0.007,0.063-0.013,0.161-0.013,0.296l0,0c-0.013,1.392,0.698,3.062,1.711,4.306l0,0c0.971,1.275,2.317,1.971,2.619,1.917l0,0
				c0.341,0.014,0.677,0.022,1.002,0.022l0,0c3.192-0.006,5.115-0.829,6.247-1.863l0,0c1.124-1.038,1.635-2.403,1.646-4.057l0,0
				c0.013-2.081-0.934-4.515-2.508-6.321l0,0c-1.585-1.821-3.676-2.978-5.967-2.976l0,0c-0.78,0-1.597,0.13-2.464,0.432l0,0
				c-9.939,3.42-23.379,12.825-50.712,23.155l0,0c-3.52,1.325-6.79,1.954-9.775,1.954l0,0c-0.017,0-0.034,0-0.052,0l0,0
				C24.237,102.471,19.96,100.555,17.083,97.342L17.083,97.342z"/>
		</g>
		<g>
			<path fill="#FFFFFF" d="M39.114,87.332c-6.417-1.612-9.509-6.6-9.389-11.844l0,0c0.076-7.937,5.625-16.904,12.697-22.277l0,0
				l2.274,3.034c-6.235,4.604-11.257,13.15-11.181,19.244l0,0c0.119,3.992,1.604,6.727,6.583,8.185l0,0
				c1.112,0.3,2.342,0.445,3.684,0.445l0,0c6.732,0.037,15.959-3.856,24.394-8.37l0,0c8.483-4.507,16.157-9.514,20.665-11.642l0,0
				c2.436-1.146,5.136-1.713,7.843-1.713l0,0c4.176,0,8.405,1.345,11.658,4.181l0,0c3.261,2.826,5.424,7.193,5.405,12.729l0,0
				c0,0.903-0.053,1.832-0.161,2.793l0,0l-3.77-0.432c0.095-0.829,0.144-1.613,0.144-2.361l0,0
				c-0.056-9.01-6.489-13.004-13.276-13.117l0,0c-2.175-0.003-4.341,0.459-6.23,1.35l0,0c-4.023,1.881-11.881,6.972-20.496,11.559
				l0,0c-8.665,4.583-18.106,8.779-26.175,8.816l0,0C42.168,87.91,40.604,87.734,39.114,87.332L39.114,87.332z"/>
		</g>
		<g>
			<path fill="#FFFFFF" d="M48.117,73.807c-1.299-1.768-1.792-3.977-1.798-6.291l0,0c0.048-5.798,3.069-12.708,8.522-16.594l0,0
				l0.002,0.003l2.172,3.103c-4.218,2.883-6.95,9.035-6.905,13.489l0,0c-0.006,1.766,0.412,3.189,1.051,4.036l0,0
				c0.654,0.834,1.417,1.306,2.986,1.337l0,0c0.643,0,1.416-0.104,2.324-0.352l0,0c10.745-2.925,22.206-13.396,31.262-17.166l0,0
				c3.829-1.556,8.227-2.245,12.421-2.25l0,0c5.934,0.056,11.432,1.256,14.58,4.26l0,0l-2.669,2.69
				c-1.642-1.745-6.583-3.211-11.911-3.158l0,0c-3.771-0.003-7.751,0.643-10.99,1.969l0,0c-7.998,3.18-19.681,13.915-31.682,17.307
				l0,0c-1.181,0.325-2.29,0.491-3.335,0.491l0,0c-0.036,0.001-0.07,0.001-0.105,0.001l0,0
				C51.546,76.681,49.383,75.564,48.117,73.807L48.117,73.807z"/>
		</g>
		<g>
			<path fill="#FFFFFF" d="M63.135,60.053c-1.166-0.826-1.846-2.318-1.812-3.8l0,0c0.027-2.104,0.972-4.334,2.795-7.128l0,0h0.003
				l3.159,2.091c-1.641,2.455-2.193,4.236-2.168,5.038l0,0c0.035,0.582,0.109,0.593,0.276,0.751l0,0
				c0.186,0.151,0.748,0.365,1.663,0.36l0,0c2.522,0.035,7.066-1.569,11.272-4.478l0,0c9.145-6.197,19.666-7.599,24.357-10.78l0,0
				c1.566-1.037,2.4-2.048,2.757-3.411l0,0c0.201-0.789,0.289-1.532,0.289-2.228l0,0c-0.008-4.297-3.501-7.157-6.878-7.161l0,0
				c-0.817,0-1.618,0.167-2.374,0.517l0,0c-1.174,0.497-2.78,2.286-3.886,4.424l0,0c-1.136,2.114-1.829,4.578-1.812,6.028l0,0
				c-0.005,0.593,0.119,0.963,0.166,1.026l0,0l-3.28,1.895c-0.534-0.939-0.668-1.926-0.675-2.921l0,0
				c0.019-2.432,0.899-5.215,2.254-7.8l0,0c1.382-2.559,3.179-4.917,5.645-6.094l0,0c1.274-0.59,2.629-0.863,3.963-0.863l0,0
				c5.422,0.011,10.648,4.47,10.666,10.95l0,0c0.003,1.019-0.129,2.08-0.404,3.165l0,0c-0.627,2.496-2.32,4.334-4.357,5.649l0,0
				c-2.049,1.332-4.501,2.284-7.18,3.234l0,0c-5.35,1.887-11.626,3.744-17.109,7.501l0,0c-4.723,3.194-9.575,5.101-13.413,5.136l0,0
				C65.645,61.148,64.29,60.889,63.135,60.053L63.135,60.053z"/>
		</g>
	</g>
</g>
</svg>
